<svg width="379" height="141" viewBox="0 0 379 141" fill="none" xmlns="http://www.w3.org/2000/svg">
<path d="M181.879 123.805L179.462 115.393H178.534C176.618 118.453 173.899 120.815 170.375 122.486C166.846 124.14 162.832 124.973 158.332 124.973C150.605 124.973 144.783 122.907 140.871 118.766C136.953 114.631 135 108.678 135 100.904V58H152.914V96.4276C152.914 101.185 153.756 104.753 155.439 107.132C157.123 109.5 159.805 110.679 163.49 110.679C168.508 110.679 172.134 109.008 174.368 105.662C176.596 102.304 177.713 96.7412 177.713 88.967V58H195.628V123.805H181.879Z" fill="#1F3C88"/>
<path d="M80.7992 125.75C73.0832 125.75 67.0183 122.755 62.6045 116.754C58.2015 110.758 56 102.438 56 91.7984C56 81.0184 58.2447 72.6116 62.734 66.5837C67.2233 60.5611 73.4015 57.5444 81.2741 57.5444C89.5297 57.5444 95.832 60.7611 100.181 67.1892H100.764C99.8681 62.2911 99.4256 57.912 99.4256 54.0628V33H117.405V124.582H103.656L100.181 116.04H99.4256C95.3518 122.517 89.1412 125.75 80.7992 125.75ZM87.08 111.456C91.6664 111.456 95.028 110.126 97.1594 107.455C99.2854 104.79 100.451 100.254 100.656 93.8528V91.9066C100.656 84.8568 99.5659 79.8074 97.3968 76.7474C95.2223 73.6767 91.688 72.1413 86.7994 72.1413C82.7957 72.1413 79.6877 73.8443 77.4754 77.2448C75.2577 80.6345 74.1516 85.565 74.1516 92.0363C74.1516 98.513 75.2631 103.368 77.497 106.612C79.7416 109.844 82.936 111.456 87.08 111.456Z" fill="#1F3C88"/>
<path d="M49.4474 126.046H0V40H49.4474V54.9428H18.2164V73.8431H47.2891V88.786H18.2164V110.973H49.4474V126.046Z" fill="#1F3C88"/>
<mask id="mask0_1_42" style="mask-type:luminance" maskUnits="userSpaceOnUse" x="76" y="0" width="66" height="36">
<path d="M76 0H141.867V35.292H76V0Z" fill="white"/>
</mask>
<g mask="url(#mask0_1_42)">
<path fill-rule="evenodd" clip-rule="evenodd" d="M91.2864 18.8245L108.936 24.9931L126.581 18.8245V29.5073C126.581 32.8483 118.681 35.5515 108.936 35.5515C99.1859 35.5515 91.2864 32.8483 91.2864 29.5073V18.8245ZM108.936 0L141.867 11.5099L136.995 13.2128V22.6738L137.135 22.717C137.863 23.0252 138.376 23.7496 138.376 24.593C138.376 25.1607 138.149 25.6688 137.782 26.0365L137.75 26.0635L138.888 32.7456H133.795L134.933 26.0635L134.901 26.0365C134.534 25.6688 134.307 25.1607 134.307 24.593C134.307 23.7496 134.82 23.0252 135.548 22.717L135.683 22.6738V13.6724L108.936 23.0252L76 11.5099L108.936 0Z" fill="#1F3C88"/>
</g>
<mask id="mask1_1_42" style="mask-type:luminance" maskUnits="userSpaceOnUse" x="289" y="51" width="90" height="90">
<path d="M289 51H378.495V140.176H289V51Z" fill="white"/>
</mask>
<g mask="url(#mask1_1_42)">
<path fill-rule="evenodd" clip-rule="evenodd" d="M336.942 71.1707C336.133 70.3598 335.021 69.8624 333.796 69.8624H323.129C320.679 69.8624 318.683 71.8628 318.683 74.3172V77.1284C318.683 77.2366 318.769 77.3231 318.877 77.3231H321.666C321.774 77.3231 321.861 77.2366 321.861 77.1284V74.3172C321.861 73.6198 322.438 73.0467 323.129 73.0467H333.796C334.492 73.0467 335.07 73.6198 335.07 74.3172V77.1284C335.07 77.2366 335.156 77.3231 335.264 77.3231H338.054C338.156 77.3231 338.248 77.2366 338.248 77.1284V74.3172C338.248 73.09 337.746 71.9763 336.942 71.1707ZM364.833 120.368C365.13 120.07 365.615 120.07 365.907 120.368L377.961 132.445C378.258 132.737 378.258 133.224 377.961 133.521L371.853 139.641C371.556 139.938 371.071 139.938 370.779 139.641L358.725 127.563C358.428 127.271 358.428 126.785 358.725 126.488L359.977 125.239C360.052 125.163 360.052 125.039 359.977 124.958L354.041 119.016C353.966 118.94 353.853 118.935 353.772 119.005C338.642 132.31 315.661 131.651 301.303 117.264C286.297 102.235 286.297 77.8637 301.303 62.8343C316.303 47.7995 340.627 47.7995 355.628 62.8343C369.986 77.2203 370.644 100.246 357.365 115.405C357.295 115.486 357.301 115.599 357.371 115.675L363.306 121.622C363.387 121.698 363.511 121.698 363.587 121.622L364.833 120.368ZM351.344 67.1269C363.975 79.7883 363.975 100.31 351.344 112.972C338.706 125.628 318.224 125.628 305.587 112.972C292.95 100.31 292.95 79.7883 305.587 67.1269C318.224 54.4654 338.706 54.4654 351.344 67.1269ZM346.698 88.8384L332.447 96.4882C329.884 97.8614 327.046 97.8614 324.483 96.4882L310.233 88.8384C310.168 88.8059 310.098 88.8059 310.038 88.8438C309.979 88.8816 309.947 88.9411 309.947 89.0114V103.689C309.947 104.781 310.842 105.679 311.932 105.679H344.998C346.088 105.679 346.984 104.781 346.984 103.689V89.0114C346.984 88.9411 346.951 88.8816 346.892 88.8438C346.827 88.8059 346.757 88.8059 346.698 88.8384ZM344.998 80.5073H311.932C310.842 80.5073 309.947 81.4048 309.947 82.4968V84.9675C309.947 85.0432 309.984 85.1081 310.049 85.1405L325.972 93.6878C327.575 94.5474 329.35 94.5474 330.953 93.6878L346.881 85.1405C346.946 85.1081 346.984 85.0432 346.984 84.9675V82.4968C346.984 81.4048 346.088 80.5073 344.998 80.5073Z" fill="#1F3C88"/>
</g>
<path d="M239.015 125.805L214 60H232.734L245.425 97.4977C246.834 102.244 247.719 106.732 248.08 110.97H248.425C248.625 107.207 249.505 102.72 251.059 97.4977L263.706 60H282.441L257.404 125.805H239.015Z" fill="#1F3C88"/>
</svg>
